<?xml version="1.0" encoding="UTF-8"?>
<svg id="Layer_1" data-name="Layer 1" xmlns="http://www.w3.org/2000/svg" viewBox="0 0 800 800">
  <defs>
    <style>
      .cls-1 {
        fill: #fff5ec;
      }

      .cls-2 {
        fill: #7f1518;
        stroke: #7f1518;
        stroke-miterlimit: 10;
        stroke-width: 4.65px;
      }

      .cls-3 {
        fill: #7f1416;
      }
    </style>
  </defs>
  <rect class="cls-1" width="800" height="800"/>
  <g>
    <g>
      <path class="cls-2" d="m187.41,605.86c-2.26,0-4.16-.77-5.71-2.32-1.55-1.54-2.32-3.45-2.32-5.71s.77-4.16,2.32-5.71c1.54-1.54,3.45-2.32,5.71-2.32h52.26c2.26,0,4.16.78,5.71,2.32,1.54,1.55,2.32,3.45,2.32,5.71,0,9.27-1.76,17.99-5.26,26.13-3.51,8.15-8.29,15.25-14.36,21.31-6.06,6.06-13.17,10.85-21.31,14.36-8.15,3.51-16.85,5.26-26.13,5.26s-17.99-1.75-26.13-5.26c-8.15-3.51-15.25-8.29-21.31-14.36-6.06-6.06-10.85-13.17-14.36-21.31-3.51-8.14-5.26-16.85-5.26-26.13s1.75-17.98,5.26-26.13c3.51-8.14,8.29-15.25,14.36-21.31,6.06-6.06,13.17-10.85,21.31-14.36,8.14-3.51,16.85-5.26,26.13-5.26,10.46,0,20.36,2.32,29.69,6.95,9.33,4.64,17.21,11.12,23.63,19.44,1.43,2.02,1.96,3.98,1.61,5.89-.36,2.02-1.25,3.69-2.68,4.99-1.43,1.31-3.21,1.96-5.35,1.96-2.62,0-4.7-1.01-6.24-3.03-4.99-6.42-11.03-11.38-18.1-14.89-7.08-3.51-14.6-5.26-22.56-5.26-7.02,0-13.62,1.34-19.8,4.01-6.18,2.68-11.59,6.33-16.23,10.97s-8.29,10.05-10.97,16.23c-2.68,6.18-4.01,12.78-4.01,19.8s1.34,13.62,4.01,19.8c2.68,6.18,6.33,11.59,10.97,16.23s10.05,8.29,16.23,10.97c6.18,2.68,12.78,4.01,19.8,4.01,6.3,0,12.28-1.07,17.92-3.21,5.65-2.14,10.7-5.14,15.16-9.01,4.46-3.86,8.2-8.41,11.24-13.64,3.03-5.23,5.02-10.94,5.97-17.12h-43.52Z"/>
      <path class="cls-2" d="m334.37,579.11c0-2.26.77-4.19,2.32-5.8,1.54-1.61,3.45-2.41,5.71-2.41s4.19.8,5.8,2.41c1.61,1.6,2.41,3.54,2.41,5.8v38.88c0,6.42-1.25,12.48-3.75,18.19s-5.86,10.7-10.08,14.98c-4.22,4.28-9.18,7.64-14.89,10.08-5.71,2.44-11.83,3.66-18.37,3.66s-12.48-1.22-18.19-3.66c-5.71-2.43-10.7-5.8-14.98-10.08-4.28-4.28-7.64-9.27-10.08-14.98-2.44-5.71-3.66-11.77-3.66-18.19v-38.88c0-2.26.77-4.19,2.32-5.8,1.54-1.61,3.45-2.41,5.71-2.41s4.16.8,5.71,2.41c1.54,1.6,2.32,3.54,2.32,5.8v38.88c0,4.28.8,8.29,2.41,12.04,1.6,3.75,3.8,7.02,6.6,9.81,2.79,2.79,6.06,4.99,9.81,6.6s7.76,2.41,12.04,2.41,8.29-.8,12.04-2.41,7.01-3.8,9.81-6.6c2.79-2.79,4.99-6.06,6.6-9.81,1.61-3.74,2.41-7.76,2.41-12.04v-38.88Z"/>
      <path class="cls-2" d="m437.81,538.81c0-2.26.77-4.16,2.32-5.71s3.45-2.32,5.71-2.32,4.19.77,5.8,2.32c1.6,1.55,2.41,3.45,2.41,5.71v79.19c0,6.42-1.25,12.48-3.75,18.19s-5.86,10.7-10.08,14.98c-4.22,4.28-9.19,7.64-14.89,10.08-5.71,2.44-11.83,3.66-18.37,3.66s-12.48-1.22-18.19-3.66c-5.71-2.43-10.7-5.8-14.98-10.08-4.28-4.28-7.64-9.27-10.08-14.98-2.44-5.71-3.66-11.77-3.66-18.19s1.22-12.66,3.66-18.37c2.44-5.71,5.8-10.67,10.08-14.89,4.28-4.22,9.27-7.55,14.98-9.99,5.71-2.43,11.77-3.66,18.19-3.66,5.71-.12,11.2.8,16.5,2.76,5.29,1.96,10.08,4.85,14.36,8.65v-43.69Zm-30.85,110.04c4.28,0,8.29-.8,12.04-2.41,3.75-1.6,7.01-3.8,9.81-6.6s4.99-6.06,6.6-9.81c1.6-3.74,2.41-7.76,2.41-12.04s-.8-8.29-2.41-12.04c-1.61-3.74-3.81-7.01-6.6-9.81-2.79-2.79-6.06-4.99-9.81-6.6-3.75-1.61-7.76-2.41-12.04-2.41s-8.29.8-12.04,2.41c-3.75,1.6-7.02,3.81-9.81,6.6-2.79,2.79-4.99,6.06-6.6,9.81-1.61,3.75-2.41,7.76-2.41,12.04s.8,8.29,2.41,12.04c1.61,3.75,3.8,7.02,6.6,9.81,2.79,2.79,6.06,4.99,9.81,6.6s7.76,2.41,12.04,2.41Z"/>
      <path class="cls-2" d="m541.43,653.3c-4.28,3.81-9.07,6.69-14.36,8.65-5.29,1.96-10.79,2.94-16.5,2.94-6.42,0-12.49-1.22-18.19-3.66-5.71-2.43-10.7-5.8-14.98-10.08-4.28-4.28-7.64-9.27-10.08-14.98-2.44-5.71-3.66-11.77-3.66-18.19s1.22-12.66,3.66-18.37c2.43-5.71,5.8-10.67,10.08-14.89,4.28-4.22,9.27-7.58,14.98-10.08,5.71-2.5,11.77-3.74,18.19-3.74s12.66,1.25,18.37,3.74c5.71,2.5,10.67,5.86,14.89,10.08,4.22,4.22,7.55,9.19,9.99,14.89,2.44,5.71,3.66,11.83,3.66,18.37v38.88c0,2.26-.78,4.16-2.32,5.71-1.55,1.55-3.45,2.32-5.71,2.32s-4.16-.77-5.71-2.32c-1.55-1.54-2.32-3.45-2.32-5.71v-3.57Zm-30.85-66.17c-4.28,0-8.29.8-12.04,2.41-3.74,1.6-7.02,3.81-9.81,6.6-2.79,2.79-4.99,6.06-6.6,9.81-1.6,3.75-2.41,7.76-2.41,12.04s.8,8.29,2.41,12.04c1.61,3.75,3.8,7.02,6.6,9.81,2.79,2.79,6.06,4.99,9.81,6.6,3.75,1.6,7.76,2.41,12.04,2.41s8.29-.8,12.04-2.41,7.01-3.8,9.81-6.6,4.99-6.06,6.6-9.81c1.6-3.74,2.41-7.76,2.41-12.04s-.8-8.29-2.41-12.04c-1.61-3.74-3.81-7.01-6.6-9.81-2.79-2.79-6.06-4.99-9.81-6.6-3.75-1.61-7.76-2.41-12.04-2.41Z"/>
      <path class="cls-2" d="m628.28,581.43c2.5-2.97,5.77-5.44,9.81-7.4,4.04-1.96,9.21-2.94,15.52-2.94,4.28-.24,8.44.39,12.48,1.87,4.04,1.49,7.61,3.78,10.7,6.87,2.5,2.5,4.4,5.23,5.71,8.2,1.31,2.97,2.26,5.86,2.85,8.65.59,2.79.92,5.29.98,7.49.06,2.2.09,3.72.09,4.55v48.15c0,2.26-.8,4.16-2.41,5.71-1.6,1.55-3.48,2.32-5.62,2.32-2.26,0-4.19-.77-5.8-2.32-1.6-1.54-2.41-3.45-2.41-5.71v-33.44c0-2.91.06-5.56.18-7.94v-7.67c.12-2.02.06-4.04-.18-6.06-.24-1.66-.69-3.48-1.34-5.44-.65-1.96-1.76-3.71-3.3-5.26-3.57-2.97-7.55-4.28-11.95-3.92-3.57,0-6.45.6-8.65,1.78-2.2,1.19-3.92,2.65-5.17,4.37-1.25,1.73-2.11,3.57-2.59,5.53-.48,1.96-.77,3.72-.89,5.26,0,.24.03,1.19.09,2.85.06,1.67.09,3.75.09,6.24s-.03,5.32-.09,8.47c-.06,3.15-.09,6.33-.09,9.54v25.68c0,2.26-.77,4.16-2.32,5.71s-3.45,2.32-5.71,2.32-4.16-.77-5.71-2.32c-1.55-1.54-2.32-3.45-2.32-5.71v-53.5c0-4.64-1.6-8.74-4.82-12.31-1.67-1.43-3.54-2.5-5.62-3.21-2.08-.71-4.19-.95-6.33-.71-4.64,0-8.15.98-10.52,2.94-2.38,1.96-4.04,4.16-5,6.6-.95,2.44-1.46,4.76-1.52,6.95-.06,2.2-.09,3.54-.09,4.01v7.76c0,2.32.03,4.96.09,7.94.06,2.97.09,6.01.09,9.09v24.43c0,2.26-.8,4.16-2.41,5.71-1.6,1.55-3.54,2.32-5.8,2.32-2.14,0-4.01-.77-5.62-2.32-1.6-1.54-2.41-3.45-2.41-5.71v-48.15c0-.83.03-2.32.09-4.46.06-2.14.36-4.61.89-7.4.54-2.79,1.45-5.71,2.76-8.74,1.31-3.03,3.21-5.8,5.71-8.29,2.5-2.5,5.68-4.57,9.54-6.24,3.86-1.66,8.59-2.5,14.18-2.5,4.28-.24,8.47.39,12.57,1.87,4.1,1.49,7.7,3.72,10.79,6.69.47.48.95,1.07,1.43,1.78Z"/>
    </g>
    <g>
      <rect class="cls-1" x="290.32" y="172.22" width="232.94" height="302.53"/>
      <g>
        <path class="cls-3" d="m215.79,321.51c0-28.44,0-56.87,0-85.31,0-47.95,33.96-89.62,80.96-99.02,6.4-1.28,13.03-1.93,19.55-1.95,57.31-.15,114.63-.18,171.94-.04,24.36.06,45.9,8.33,64.43,24.08,18.32,15.58,29.7,35.37,34.01,59.05,1.07,5.89,1.61,11.95,1.62,17.94.12,56.87.1,113.75.06,170.62-.03,48.47-34.39,90.12-82.01,99.25-6.05,1.16-12.29,1.79-18.45,1.81-57.37.13-114.75.2-172.12.02-25.47-.08-47.74-9.06-66.64-26.09-17.41-15.69-28.04-35.28-31.99-58.39-.86-5.05-1.28-10.24-1.31-15.36-.12-28.87-.06-57.74-.06-86.61Zm151.78,25.45c-4.24,1.31-8.36,2.38-12.33,3.85-9.3,3.45-17.2,8.85-22.4,17.52-5.62,9.36-6.76,19.56-5.06,30.16,1.69,10.51,7.49,18.1,17.02,22.66,3.66,1.75,7.56,3.14,11.48,4.15,12.21,3.17,24.76,3.2,37.26,3.8,9.08.44,18.17,1.03,27.22,1.91,4.37.43,8.61,1.82,12.12,4.75,4.73,3.94,5.31,11.87.88,15.45-1.7,1.37-4.02,2.16-6.19,2.7-2.43.61-5,.63-7.61.92v7.86c3.43-.15,6.75-.25,10.07-.46,7.76-.5,15.38-1.75,22.68-4.53,9-3.42,16.33-8.84,20.51-17.81,2.86-6.15,3.59-12.69,3.55-19.4-.09-15.93-8.01-27.53-22.82-33.21-10.27-3.94-21.04-5.02-31.89-5.52-10.89-.51-21.8-.68-32.69-1.21-5.32-.26-10.61-.99-15.54-3.27-2.92-1.35-5.38-3.26-6.16-6.53-1.47-6.2.17-12.87,7.44-15.38,1.4-.48,2.84-1.03,4.3-1.13,8.15-.54,16.3-1.11,24.46-1.35,7.21-.22,14.35-.79,21.37-2.44,13.66-3.22,25.43-9.63,34.36-20.7,8.69-10.77,13.04-23.38,15.29-36.83,1.91-11.43,2.25-22.93,1.56-34.49-.6-9.95-2.1-19.72-5.27-29.18-6.66-19.91-19.41-34.02-39.69-40.35-18.6-5.81-37.49-5.72-56.29-.81-10.69,2.79-20.09,8.06-27.79,16.1-10.22,10.68-15.38,23.81-18.05,38.08-2.25,12.01-2.65,24.13-1.95,36.32.58,10.07,2.09,19.97,5.31,29.55,5.61,16.64,15.57,29.61,31.69,37.33,1.03.49,2.06.98,3.17,1.51Z"/>
        <path class="cls-3" d="m402.43,226.99c11.61-.03,21.85,4.84,26.64,19.89,2.74,8.61,3.18,17.51,2.77,26.48-.3,6.59-1.15,13.08-3.48,19.3-4.32,11.55-12.88,17.71-25.17,17.83-3.31.03-6.72-.21-9.93-.97-9.94-2.35-15.4-9.4-18.38-18.66-2.78-8.67-3.24-17.64-2.86-26.66.26-6.08,1.03-12.09,3-17.9,4.26-12.59,12.59-18.79,25.88-19.22.37-.01.74-.05,1.54-.1Z"/>
      </g>
    </g>
  </g>
</svg>