<svg width="68" height="68" viewBox="0 0 68 68" fill="none" xmlns="http://www.w3.org/2000/svg">
<path d="M55.1055 8.10059H14.4585V60.5626H55.1055V8.10059Z" fill="#FFF5EC"/>
<path d="M1.45332 33.9831C1.45332 29.0531 1.45332 24.1231 1.45332 19.1931C1.45332 10.8801 7.37782 3.65508 15.5803 2.02308C16.6938 1.80208 17.8583 1.69158 18.9888 1.68308C28.9933 1.65758 38.9893 1.64908 48.9938 1.67458C53.2438 1.68308 57.0008 3.11958 60.2393 5.84808C63.4353 8.55108 65.4243 11.9851 66.1723 16.0906C66.3593 17.1106 66.4528 18.1646 66.4528 19.2016C66.4698 29.0616 66.4698 38.9216 66.4613 48.7901C66.4528 57.1966 60.4603 64.4131 52.1473 66.0026C51.0933 66.2066 50.0053 66.3171 48.9258 66.3171C38.9128 66.3426 28.8998 66.3511 18.8868 66.3171C14.4413 66.3001 10.5568 64.7446 7.25882 61.7951C4.23282 59.0751 2.37982 55.6751 1.69132 51.6716C1.53832 50.7961 1.47032 49.8951 1.46182 49.0111C1.43632 43.9961 1.44482 38.9896 1.45332 33.9831ZM27.9393 38.4031C27.1998 38.6326 26.4773 38.8196 25.7888 39.0746C24.1653 39.6696 22.7883 40.6131 21.8788 42.1091C20.9013 43.7326 20.6973 45.5006 20.9948 47.3366C21.2923 49.1556 22.3038 50.4731 23.9613 51.2636C24.5988 51.5696 25.2788 51.8076 25.9673 51.9861C28.1008 52.5386 30.2853 52.5386 32.4698 52.6491C34.0508 52.7256 35.6403 52.8276 37.2213 52.9806C37.9863 53.0571 38.7258 53.2951 39.3378 53.8051C40.1623 54.4851 40.2643 55.8621 39.4908 56.4826C39.1933 56.7206 38.7853 56.8566 38.4113 56.9501C37.9863 57.0521 37.5358 57.0606 37.0853 57.1116V58.4716C37.6803 58.4461 38.2668 58.4291 38.8448 58.3951C40.1963 58.3101 41.5308 58.0891 42.8058 57.6131C44.3783 57.0181 45.6533 56.0831 46.3843 54.5276C46.8858 53.4651 47.0133 52.3261 47.0048 51.1616C46.9878 48.3991 45.6108 46.3846 43.0183 45.4071C41.2248 44.7271 39.3463 44.5401 37.4508 44.4466C35.5468 44.3616 33.6428 44.3276 31.7473 44.2341C30.8208 44.1916 29.8943 44.0641 29.0358 43.6646C28.5258 43.4266 28.1008 43.0951 27.9648 42.5341C27.7098 41.4631 27.9903 40.2986 29.2653 39.8651C29.5118 39.7801 29.7583 39.6866 30.0133 39.6696C31.4328 39.5761 32.8608 39.4741 34.2803 39.4316C35.5383 39.3976 36.7878 39.2956 38.0118 39.0066C40.3918 38.4456 42.4488 37.3406 44.0043 35.4196C45.5173 33.5496 46.2823 31.3651 46.6733 29.0361C47.0048 27.0556 47.0643 25.0581 46.9453 23.0521C46.8433 21.3266 46.5798 19.6351 46.0273 17.9946C44.8628 14.5436 42.6358 12.0956 39.0998 10.9991C35.8528 9.98758 32.5548 10.0046 29.2738 10.8546C27.4123 11.3391 25.7718 12.2486 24.4203 13.6426C22.6353 15.4956 21.7343 17.7736 21.2668 20.2471C20.8758 22.3296 20.8078 24.4291 20.9268 26.5456C21.0288 28.2881 21.2923 30.0051 21.8533 31.6711C22.8308 34.5526 24.5733 36.8051 27.3868 38.1481C27.5653 38.2246 27.7438 38.3096 27.9393 38.4031Z" fill="#7F1416"/>
<path d="M34.0252 17.595C36.0482 17.5865 37.8417 18.4365 38.6747 21.046C39.1507 22.542 39.2272 24.0805 39.1592 25.636C39.1082 26.775 38.9552 27.9055 38.5557 28.985C37.7992 30.991 36.3117 32.0535 34.1612 32.079C33.5832 32.0875 32.9882 32.045 32.4272 31.909C30.6932 31.501 29.7412 30.277 29.2227 28.6705C28.7382 27.166 28.6532 25.6105 28.7212 24.0465C28.7637 22.9925 28.8997 21.947 29.2482 20.944C29.9877 18.7595 31.4412 17.6885 33.7617 17.612C33.8212 17.612 33.8807 17.6035 34.0252 17.595Z" fill="#7F1416"/>
</svg>
